<?xml version="1.0" encoding="UTF-8"?>
<svg xmlns="http://www.w3.org/2000/svg" xmlns:xlink="http://www.w3.org/1999/xlink" width="36px" height="36px" viewBox="0 0 36 36" version="1.1">
<g id="surface1">
<path style=" stroke:none;fill-rule:nonzero;fill:rgb(19.607843%,72.941176%,48.627451%);fill-opacity:1;" d="M 36 18 C 36 27.941406 27.941406 36 18 36 C 8.058594 36 0 27.941406 0 18 C 0 8.058594 8.058594 0 18 0 C 27.941406 0 36 8.058594 36 18 Z M 36 18 "/>
<path style=" stroke:none;fill-rule:nonzero;fill:rgb(3.921569%,62.745098%,43.137255%);fill-opacity:1;" d="M 13.402344 26.121094 L 22.65625 35.375 C 30.320312 33.332031 36 26.347656 36 18 C 36 17.828125 36 17.660156 36 17.488281 L 28.730469 10.789062 Z M 13.402344 26.121094 "/>
<path style=" stroke:none;fill-rule:nonzero;fill:rgb(100%,100%,100%);fill-opacity:1;" d="M 18.453125 22.03125 C 19.25 22.828125 19.25 24.1875 18.453125 24.984375 L 16.808594 26.632812 C 16.011719 27.425781 14.648438 27.425781 13.855469 26.632812 L 6.644531 19.363281 C 5.847656 18.566406 5.847656 17.203125 6.644531 16.410156 L 8.289062 14.761719 C 9.085938 13.96875 10.449219 13.96875 11.242188 14.761719 Z M 18.453125 22.03125 "/>
<path style=" stroke:none;fill-rule:nonzero;fill:rgb(100%,100%,100%);fill-opacity:1;" d="M 24.757812 9.484375 C 25.550781 8.6875 26.914062 8.6875 27.710938 9.484375 L 29.355469 11.128906 C 30.152344 11.925781 30.152344 13.285156 29.355469 14.082031 L 16.863281 26.515625 C 16.070312 27.3125 14.707031 27.3125 13.910156 26.515625 L 12.265625 24.871094 C 11.46875 24.074219 11.46875 22.714844 12.265625 21.917969 Z M 24.757812 9.484375 "/>
</g>
</svg>
